PathFileType   4   (X/Y/Z)
DataRate	CameraRate	NumFrames	NumMarkers	Units	OrigDataRate	OrigDataStartFrame	OrigNumFrames
120.0	120.0	10	37	mm	120.0	98	194
Frame#	Time	midhip	hip_r	hip_l	knee_r	knee_l	ankle_r	ankle_l	midasis	asis_r	asis_l	psis_r	psis_l	epicondLat_r	epicondLat_l	epicondMed_r	epicondMed_l	malleolusLat_r	malleolusLat_l	malleolusMedv_r	malleolusMedv_l	neck	subclavicle_r	subclavicle_l	sternalnotch	xyphoidprocess	thighwand_r	thighwand_l	upperleg1_r	upperleg1_l	upperleg2_r	upperleg2_l	shankwand_r	shankwand_l	lowerleg1_r	lowerleg1_l	toe_r	toe_l
 	 	X1	Y1	Z1	X2	Y2	Z2	X3	Y3	Z3	X4	Y4	Z4	X5	Y5	Z5	X6	Y6	Z6	X7	Y7	Z7	X8	Y8	Z8	X9	Y9	Z9	X10	Y10	Z10	X11	Y11	Z11	X12	Y12	Z12	X13	Y13	Z13	X14	Y14	Z14	X15	Y15	Z15	X16	Y16	Z16	X17	Y17	Z17	X18	Y18	Z18	X19	Y19	Z19	X20	Y20	Z20	X21	Y21	Z21	X22	Y22	Z22	X23	Y23	Z23	X24	Y24	Z24	X25	Y25	Z25	X26	Y26	Z26	X27	Y27	Z27	X28	Y28	Z28	X29	Y29	Z29	X30	Y30	Z30	X31	Y31	Z31	X32	Y32	Z32	X33	Y33	Z33	X34	Y34	Z34	X35	Y35	Z35	X36	Y36	Z36	X37	Y37	Z37

	98	1.18333	560.791	768.093	-247.361	545.318	773.272	-167.475	538.683	770.687	-322.941	645.697	411.831	-193.017	448.853	424.793	-313.953	719.432	59.922	-194.202	267.641	99.719	-308.361	671.154	841.321	-251.873	676.513	843.409	-126.298	665.794	839.232	-377.449	429.122	918.407	-210.833	424.092	918.126	-264.214	656.689	409.893	-122.394	444.528	424.062	-385.318	612.406	403.995	-258.412	447.094	421.659	-222.236	714.428	58.745	-156.047	254.066	106.660	-344.800	722.323	70.747	-231.169	271.006	117.361	-267.523	462.413	1338.720	-235.782	590.512	1265.612	-206.561	584.570	1266.770	-288.017	569.489	1261.730	-258.172	618.084	1185.801	-261.658	765.855	580.826	-127.314	671.012	551.630	-332.875	720.528	594.746	-139.477	627.824	579.080	-337.959	711.704	518.656	-149.919	591.655	516.116	-330.894	776.009	221.224	-174.707	304.359	202.581	-414.400	730.013	217.728	-183.356	309.985	213.430	-367.268	831.895	49.861	-188.556	352.068	49.576	-314.134
	99	1.19167	566.441	768.793	-246.047	550.990	774.127	-166.172	544.330	771.177	-321.630	647.929	412.350	-192.312	455.635	424.680	-313.785	719.504	59.857	-194.175	269.957	102.036	-308.457	676.724	842.141	-250.749	682.104	844.524	-125.176	671.345	839.757	-376.321	434.688	919.007	-209.742	429.643	918.565	-263.244	658.596	410.102	-121.648	451.324	424.168	-385.153	614.580	405.885	-258.827	457.438	417.521	-223.582	714.568	58.653	-156.011	256.429	109.219	-344.867	721.675	70.890	-231.169	273.607	119.510	-267.579	468.517	1338.674	-234.792	595.885	1266.320	-204.842	589.052	1267.466	-286.769	574.620	1262.476	-256.669	622.903	1186.516	-260.475	769.479	579.711	-125.613	677.461	552.500	-332.263	724.732	594.505	-138.348	634.404	580.156	-337.252	714.567	518.584	-148.931	600.049	516.821	-330.967	776.810	220.955	-174.606	307.942	204.562	-414.386	730.478	217.605	-182.851	313.789	215.214	-367.170	832.083	49.626	-188.683	353.154	49.767	-314.131
	100	1.20000	572.100	769.494	-244.727	556.657	774.953	-164.861	549.975	771.688	-320.312	650.058	412.820	-191.544	462.661	424.483	-313.728	719.610	59.813	-194.125	272.466	104.420	-308.553	682.285	842.972	-249.593	687.682	845.609	-124.043	676.888	840.335	-375.143	440.235	919.585	-208.593	435.163	918.994	-262.245	660.444	410.289	-120.847	458.375	424.207	-385.099	617.478	407.708	-259.856	465.607	416.119	-224.262	714.720	58.571	-155.957	258.957	111.859	-344.919	720.459	71.269	-231.112	275.317	122.155	-267.474	472.779	1339.810	-232.948	600.962	1266.994	-203.423	594.225	1268.267	-285.157	579.782	1263.250	-255.242	628.083	1187.293	-259.060	773.051	578.673	-123.970	684.012	553.437	-331.679	728.670	594.220	-137.180	641.079	581.146	-336.885	717.634	518.612	-148.222	607.462	517.297	-330.826	777.577	220.675	-174.409	311.633	206.574	-414.365	731.146	217.384	-181.738	316.886	217.015	-366.996	832.235	49.433	-188.781	354.290	49.969	-314.101
	101	1.20833	577.771	770.183	-243.402	562.330	775.731	-163.541	555.620	772.220	-318.986	652.099	413.233	-190.717	469.929	424.186	-313.796	719.768	59.787	-194.051	275.180	106.857	-308.650	687.841	843.802	-248.403	693.258	846.637	-122.896	682.424	840.967	-373.910	445.756	920.133	-207.387	440.657	919.406	-261.194	662.243	410.444	-119.995	465.680	424.168	-385.169	619.988	409.348	-260.285	471.802	417.399	-222.641	714.897	58.494	-155.883	261.661	114.564	-344.956	719.676	71.705	-231.003	277.897	124.605	-267.483	477.255	1340.627	-231.263	605.285	1267.706	-201.652	600.094	1269.343	-283.621	584.932	1264.032	-253.800	633.606	1188.311	-257.188	776.587	577.715	-122.375	690.673	554.438	-331.133	732.435	593.897	-136.011	647.347	581.834	-336.389	720.564	518.713	-147.365	613.513	517.730	-329.917	778.329	220.379	-174.105	315.441	208.613	-414.353	732.177	217.336	-180.690	320.537	218.734	-366.999	832.366	49.264	-188.867	355.482	50.173	-314.037
	102	1.21667	583.452	770.848	-242.072	568.009	776.446	-162.211	561.263	772.768	-317.650	654.096	413.597	-189.850	477.428	423.778	-314.003	719.990	59.773	-193.959	278.112	109.335	-308.743	693.395	844.620	-247.175	698.839	847.588	-121.728	687.951	841.652	-372.622	451.242	920.649	-206.131	446.132	919.793	-260.075	664.024	410.563	-119.107	473.226	424.041	-385.379	621.740	410.723	-259.947	476.900	420.255	-220.915	715.106	58.420	-155.794	264.557	117.321	-344.975	720.154	71.878	-230.890	281.422	126.862	-267.593	482.338	1341.159	-229.620	610.055	1268.572	-200.177	605.664	1270.362	-282.202	590.061	1264.802	-252.346	639.105	1189.354	-255.595	780.094	576.837	-120.805	697.446	555.499	-330.630	736.367	593.434	-134.836	653.896	582.405	-336.033	723.300	518.328	-146.303	619.370	518.349	-328.995	779.090	220.061	-173.701	319.380	210.672	-414.365	733.220	217.535	-180.361	324.841	220.471	-367.167	832.489	49.104	-188.957	356.736	50.367	-313.936
	103	1.22500	589.140	771.473	-240.737	573.691	777.084	-160.867	566.898	773.326	-316.303	656.115	413.923	-188.967	485.138	423.254	-314.365	720.281	59.764	-193.858	281.269	111.847	-308.826	698.943	845.413	-245.905	704.422	848.444	-120.531	693.463	842.382	-371.279	456.684	921.128	-204.832	451.586	920.147	-258.880	665.830	410.653	-118.205	480.997	423.826	-385.743	623.824	411.028	-259.056	484.232	420.713	-221.173	715.354	58.345	-155.701	267.656	120.116	-344.972	720.781	71.905	-230.756	284.764	129.028	-267.574	487.874	1341.516	-228.091	615.644	1269.602	-198.740	610.535	1270.970	-280.824	595.133	1265.552	-250.898	644.402	1190.176	-254.056	783.575	576.038	-119.230	704.328	556.608	-330.171	740.007	592.787	-133.598	661.114	582.993	-335.667	726.057	517.376	-145.113	626.994	519.384	-328.798	779.881	219.714	-173.217	323.468	212.742	-414.421	733.793	217.613	-180.133	329.221	222.430	-366.807	832.615	48.942	-189.064	358.058	50.536	-313.801
	104	1.23333	594.828	772.047	-239.395	579.361	777.640	-159.508	572.513	773.886	-314.941	658.219	414.229	-188.088	493.033	422.615	-314.901	720.636	59.759	-193.759	284.658	114.393	-308.896	704.474	846.170	-244.589	709.995	849.197	-119.295	698.954	843.144	-369.882	462.076	921.565	-203.503	457.013	920.463	-257.613	667.702	410.720	-117.307	488.974	423.526	-386.280	627.136	410.941	-258.576	493.976	417.744	-222.180	715.639	58.269	-155.614	270.971	122.943	-344.949	720.138	72.084	-230.575	288.022	131.638	-267.503	492.933	1342.051	-226.319	621.117	1270.550	-197.299	615.365	1271.493	-279.407	600.155	1266.270	-249.487	649.617	1190.907	-252.466	787.029	575.311	-117.612	711.314	557.754	-329.748	742.983	592.598	-132.388	668.241	583.663	-334.708	728.942	516.905	-144.088	635.285	520.166	-328.762	780.715	219.330	-172.682	327.726	214.814	-414.533	733.796	217.192	-179.090	333.582	224.622	-366.617	832.749	48.772	-189.197	359.446	50.665	-313.639
	105	1.24167	600.501	772.568	-238.035	584.999	778.114	-158.130	578.096	774.436	-313.562	660.462	414.529	-187.227	501.090	421.866	-315.629	721.046	59.755	-193.678	288.277	116.980	-308.957	709.973	846.883	-243.220	715.534	849.846	-118.010	704.413	843.920	-368.431	467.408	921.955	-202.155	462.396	920.739	-256.290	669.671	410.774	-116.422	497.139	423.147	-387.008	629.668	411.559	-257.470	503.129	414.855	-222.441	715.955	58.193	-155.548	274.509	125.803	-344.913	719.776	72.280	-230.416	292.735	134.105	-267.666	498.059	1342.610	-224.329	626.041	1271.139	-196.181	620.084	1272.069	-277.785	605.166	1266.938	-248.116	654.339	1191.465	-251.176	790.459	574.651	-115.916	718.399	558.927	-329.354	746.359	592.625	-131.156	674.803	584.469	-333.635	731.704	516.961	-142.706	642.494	520.363	-328.425	781.603	218.905	-172.118	332.172	216.880	-414.713	734.028	216.895	-178.163	338.804	226.533	-367.199	832.893	48.589	-189.357	360.896	50.746	-313.462
	106	1.25000	606.126	773.033	-236.653	590.573	778.509	-156.731	583.630	774.966	-312.165	662.871	414.830	-186.386	509.292	421.009	-316.568	721.494	59.757	-193.624	292.125	119.622	-309.019	715.419	847.546	-241.793	721.008	850.397	-116.667	709.830	844.694	-366.919	472.675	922.296	-200.800	467.715	920.973	-254.934	671.755	410.820	-115.553	505.481	422.697	-387.947	630.583	413.180	-255.874	510.283	415.231	-222.332	716.286	58.120	-155.513	278.274	128.703	-344.878	720.503	72.523	-230.357	298.340	135.714	-267.930	503.183	1343.118	-222.873	630.601	1271.676	-194.767	624.539	1272.775	-276.253	610.150	1267.549	-246.769	658.700	1192.066	-249.906	793.875	574.052	-114.112	725.575	560.123	-328.982	750.465	592.349	-129.811	681.834	585.324	-333.547	734.154	516.932	-141.004	649.534	520.635	-328.161	782.543	218.438	-171.541	336.822	218.937	-414.966	735.160	217.200	-177.829	344.774	228.048	-367.462	833.049	48.393	-189.541	362.399	50.784	-313.278
	107	1.25833	611.675	773.446	-235.241	596.047	778.832	-155.311	589.096	775.466	-310.748	665.449	415.134	-185.559	517.631	420.047	-317.737	721.958	59.768	-193.604	296.201	122.332	-309.090	720.785	848.153	-240.301	726.377	850.861	-115.259	715.194	845.446	-365.342	477.867	922.582	-199.448	472.948	921.162	-253.569	673.950	410.862	-114.695	513.995	422.182	-389.113	632.558	414.531	-255.037	516.772	416.550	-223.162	716.615	58.056	-155.515	282.270	131.655	-344.857	722.068	72.479	-230.344	303.160	138.193	-268.068	507.954	1343.476	-221.854	635.249	1272.183	-193.393	630.126	1273.629	-275.354	615.093	1268.108	-245.456	664.186	1192.886	-248.744	797.291	573.501	-112.179	732.833	561.347	-328.634	754.219	592.017	-128.244	689.417	586.201	-333.813	736.850	516.780	-139.513	656.951	521.129	-328.249	783.531	217.933	-170.957	341.688	220.986	-415.296	736.891	217.368	-177.909	350.199	229.862	-367.922	833.211	48.184	-189.742	363.947	50.802	-313.092
